<svg width="296" height="149" viewBox="0 0 296 149" fill="none" xmlns="http://www.w3.org/2000/svg">
<g id="Logo">
<g id="veti">
<path id="Vector" d="M9.15671 137.941V141.258C9.15671 141.552 9.15671 141.76 9.15671 141.879C9.19043 142.238 9.29582 142.475 9.47708 142.581C9.66678 142.679 10.0251 142.708 10.5562 142.663V143.872C10.1516 143.938 9.73001 143.97 9.2916 143.97C8.5834 143.97 8.07754 143.856 7.77402 143.627C7.47894 143.398 7.31032 143.023 7.26816 142.5C7.24287 142.296 7.23444 141.952 7.23444 141.47V137.941H6.15527V136.716H7.23444V134.968H9.15671V136.716H10.6743V137.941H9.15671Z" fill="#F1EFE7"/>
<path id="Vector_2" d="M21.9437 138.48C21.9774 138.807 21.9942 139.244 21.9942 139.788V143.823H20.0888V140.049C20.0888 139.624 20.0762 139.293 20.0551 139.052C19.9877 138.203 19.5155 137.778 18.6387 137.778C18.1413 137.79 17.7366 138.023 17.4246 138.48C17.1211 138.93 16.9694 139.62 16.9694 140.555V143.823H15.064V133.873H16.9694V137.827L17.5427 136.977C18.0232 136.651 18.6218 136.487 19.33 136.487C20.1057 136.487 20.7127 136.663 21.1511 137.01C21.598 137.361 21.8636 137.851 21.9437 138.48Z" fill="#F1EFE7"/>
<path id="Vector_3" d="M30.6303 136.485C30.8411 136.485 31.0224 136.51 31.1699 136.551V138.037C30.3605 137.984 29.7577 138.152 29.3657 138.544C28.9694 138.936 28.7755 139.602 28.7755 140.537V143.821H26.8701V136.665H28.7755V137.972L29.3657 136.976C29.724 136.649 30.1456 136.485 30.6303 136.485Z" fill="#F1EFE7"/>
<path id="Vector_4" d="M42.0287 140.096C42.0287 140.358 42.0202 140.57 42.0118 140.733H36.7677C36.8689 142.053 37.4338 142.71 38.4708 142.71C38.8839 142.71 39.2296 142.604 39.4994 142.383C39.7692 142.167 39.9378 141.873 40.0052 141.501H41.9275C41.7336 142.318 41.3247 142.947 40.6966 143.38C40.0769 143.805 39.3181 144.017 38.4202 144.017C37.3621 144.017 36.4979 143.699 35.8235 143.053C35.1574 142.412 34.8286 141.485 34.8286 140.276C34.8286 139.165 35.1701 138.258 35.8572 137.547C36.5528 136.841 37.4591 136.485 38.572 136.485C39.6596 136.485 40.5111 136.828 41.1181 137.515C41.7252 138.201 42.0287 139.063 42.0287 140.096ZM38.4877 137.776C37.5434 137.776 36.9869 138.36 36.8183 139.524H40.0558C39.9294 138.36 39.4066 137.776 38.4877 137.776Z" fill="#F1EFE7"/>
<path id="Vector_5" d="M53.2386 140.096C53.2386 140.358 53.2302 140.57 53.2218 140.733H47.9777C48.0789 142.053 48.6437 142.71 49.6808 142.71C50.0939 142.71 50.4396 142.604 50.7093 142.383C50.9791 142.167 51.1478 141.873 51.2152 141.501H53.1375C52.9436 142.318 52.5347 142.947 51.9065 143.38C51.2869 143.805 50.5281 144.017 49.6302 144.017C48.5721 144.017 47.7079 143.699 47.0334 143.053C46.3674 142.412 46.0386 141.485 46.0386 140.276C46.0386 139.165 46.38 138.258 47.0672 137.547C47.7627 136.841 48.669 136.485 49.7819 136.485C50.8695 136.485 51.7211 136.828 52.3281 137.515C52.9351 138.201 53.2386 139.063 53.2386 140.096ZM49.6976 137.776C48.7534 137.776 48.1969 138.36 48.0283 139.524H51.2658C51.1393 138.36 50.6166 137.776 49.6976 137.776Z" fill="#F1EFE7"/>
<path id="Vector_6" d="M66.4223 140.537H63.2017V139.491H66.4223V140.537Z" fill="#F1EFE7"/>
<path id="Vector_7" d="M81.1054 143.821L80.9705 142.776L80.6164 143.544C80.1316 143.858 79.5203 144.017 78.7784 144.017C78.1039 144.017 77.5348 143.829 77.0754 143.462C76.6243 143.094 76.4009 142.58 76.4009 141.926C76.4009 141.142 76.7423 140.537 77.4295 140.112C78.125 139.679 79.1367 139.459 80.4646 139.459H80.9368V139.312C80.9368 139.03 80.9283 138.805 80.9199 138.642C80.8524 138.066 80.4688 137.776 79.7733 137.776C79.0061 137.776 78.5972 138.185 78.5424 139.001H76.6875C76.7086 138.217 77.0121 137.605 77.5981 137.155C78.1925 136.71 78.9386 136.485 79.8407 136.485C81.6829 136.485 82.6735 137.188 82.8084 138.593C82.8295 138.932 82.8422 139.296 82.8422 139.688V142.008C82.8422 142.555 82.8843 143.16 82.9771 143.821H81.1054ZM79.5203 142.71C79.925 142.71 80.2623 142.575 80.5321 142.302C80.8019 142.032 80.9368 141.661 80.9368 141.191V140.603C79.2379 140.496 78.3906 140.889 78.3906 141.779C78.3906 142.4 78.7658 142.71 79.5203 142.71Z" fill="#F1EFE7"/>
<path id="Vector_8" d="M90.9989 136.485C91.9769 136.485 92.761 136.743 93.3596 137.253C93.9666 137.768 94.3039 138.43 94.3713 139.247H92.4828C92.3142 138.266 91.8083 137.776 90.9652 137.776C90.4467 137.776 90.0378 137.984 89.7343 138.397C89.4392 138.801 89.2959 139.394 89.2959 140.178C89.2959 141.027 89.4392 141.665 89.7343 142.089C90.0378 142.506 90.4425 142.71 90.9483 142.71C91.3277 142.71 91.6481 142.596 91.9095 142.367C92.1793 142.13 92.3563 141.791 92.4491 141.354H94.3545C94.1943 142.216 93.8022 142.874 93.1741 143.331C92.5544 143.789 91.7746 144.017 90.8303 144.017C89.7849 144.017 88.9333 143.699 88.2841 143.053C87.6307 142.412 87.3062 141.493 87.3062 140.292C87.3062 139.116 87.6518 138.193 88.3516 137.515C89.0598 136.828 89.9408 136.485 90.9989 136.485Z" fill="#F1EFE7"/>
<path id="Vector_9" d="M101.972 136.485C102.95 136.485 103.734 136.743 104.333 137.253C104.94 137.768 105.277 138.43 105.344 139.247H103.456C103.287 138.266 102.781 137.776 101.938 137.776C101.42 137.776 101.011 137.984 100.707 138.397C100.412 138.801 100.269 139.394 100.269 140.178C100.269 141.027 100.412 141.665 100.707 142.089C101.011 142.506 101.416 142.71 101.921 142.71C102.301 142.71 102.621 142.596 102.883 142.367C103.152 142.13 103.329 141.791 103.422 141.354H105.328C105.167 142.216 104.775 142.874 104.147 143.331C103.528 143.789 102.748 144.017 101.803 144.017C100.758 144.017 99.9065 143.699 99.2573 143.053C98.6039 142.412 98.2793 141.493 98.2793 140.292C98.2793 139.116 98.625 138.193 99.3247 137.515C100.033 136.828 100.914 136.485 101.972 136.485Z" fill="#F1EFE7"/>
<path id="Vector_10" d="M116.455 140.096C116.455 140.358 116.447 140.57 116.438 140.733H111.194C111.295 142.053 111.86 142.71 112.897 142.71C113.31 142.71 113.656 142.604 113.926 142.383C114.195 142.167 114.364 141.873 114.432 141.501H116.354C116.16 142.318 115.751 142.947 115.123 143.38C114.503 143.805 113.744 144.017 112.846 144.017C111.788 144.017 110.924 143.699 110.25 143.053C109.584 142.412 109.255 141.485 109.255 140.276C109.255 139.165 109.596 138.258 110.283 137.547C110.979 136.841 111.885 136.485 112.998 136.485C114.086 136.485 114.937 136.828 115.544 137.515C116.151 138.201 116.455 139.063 116.455 140.096ZM112.914 137.776C111.97 137.776 111.413 138.36 111.245 139.524H114.482C114.356 138.36 113.833 137.776 112.914 137.776Z" fill="#F1EFE7"/>
<path id="Vector_11" d="M123.601 136.485C124.452 136.485 125.135 136.694 125.641 137.106C126.147 137.511 126.442 138.054 126.535 138.74H124.612C124.486 138.054 124.111 137.711 123.482 137.711C123.2 137.711 122.981 137.784 122.825 137.923C122.677 138.054 122.606 138.234 122.606 138.462C122.606 138.736 122.728 138.952 122.977 139.116C123.221 139.279 123.66 139.439 124.292 139.59C125.089 139.786 125.683 140.059 126.079 140.407C126.484 140.758 126.686 141.248 126.686 141.877C126.686 142.563 126.4 143.094 125.826 143.462C125.261 143.829 124.536 144.017 123.651 144.017C122.715 144.017 121.965 143.821 121.392 143.429C120.818 143.029 120.481 142.432 120.38 141.648H122.302C122.37 142.02 122.526 142.302 122.774 142.498C123.019 142.694 123.318 142.792 123.668 142.792C123.993 142.792 124.258 142.727 124.46 142.596C124.663 142.457 124.764 142.261 124.764 142.008C124.764 141.726 124.629 141.497 124.359 141.321C124.09 141.15 123.634 140.987 122.993 140.831C122.239 140.66 121.666 140.402 121.274 140.063C120.877 139.729 120.683 139.271 120.683 138.691C120.683 138.005 120.945 137.466 121.476 137.074C122.003 136.681 122.711 136.485 123.601 136.485Z" fill="#F1EFE7"/>
<path id="Vector_12" d="M133.687 136.485C134.539 136.485 135.222 136.694 135.728 137.106C136.234 137.511 136.529 138.054 136.621 138.74H134.699C134.573 138.054 134.198 137.711 133.569 137.711C133.287 137.711 133.068 137.784 132.912 137.923C132.764 138.054 132.693 138.234 132.693 138.462C132.693 138.736 132.815 138.952 133.064 139.116C133.308 139.279 133.746 139.439 134.379 139.59C135.176 139.786 135.77 140.059 136.166 140.407C136.571 140.758 136.773 141.248 136.773 141.877C136.773 142.563 136.487 143.094 135.913 143.462C135.348 143.829 134.623 144.017 133.738 144.017C132.802 144.017 132.052 143.821 131.479 143.429C130.905 143.029 130.568 142.432 130.467 141.648H132.389C132.457 142.02 132.612 142.302 132.861 142.498C133.106 142.694 133.405 142.792 133.755 142.792C134.079 142.792 134.345 142.727 134.547 142.596C134.75 142.457 134.851 142.261 134.851 142.008C134.851 141.726 134.716 141.497 134.446 141.321C134.176 141.15 133.721 140.987 133.08 140.831C132.326 140.66 131.753 140.402 131.36 140.063C130.964 139.729 130.77 139.271 130.77 138.691C130.77 138.005 131.032 137.466 131.563 137.074C132.09 136.681 132.798 136.485 133.687 136.485Z" fill="#F1EFE7"/>
<path id="Vector_13" d="M141.65 137.531C142.324 136.837 143.26 136.485 144.466 136.485C145.667 136.485 146.607 136.837 147.282 137.531C147.965 138.217 148.31 139.124 148.31 140.243C148.31 141.354 147.965 142.265 147.282 142.972C146.607 143.67 145.667 144.017 144.466 144.017C143.26 144.017 142.324 143.67 141.65 142.972C140.975 142.265 140.638 141.354 140.638 140.243C140.638 139.124 140.975 138.217 141.65 137.531ZM143.117 142.057C143.441 142.494 143.893 142.71 144.466 142.71C145.039 142.71 145.486 142.494 145.815 142.057C146.152 141.624 146.321 141.019 146.321 140.243C146.321 139.471 146.152 138.867 145.815 138.43C145.486 137.997 145.039 137.776 144.466 137.776C143.893 137.776 143.441 137.997 143.117 138.43C142.788 138.867 142.628 139.471 142.628 140.243C142.628 141.019 142.788 141.624 143.117 142.057Z" fill="#F1EFE7"/>
<path id="Vector_14" d="M156.503 136.485C156.714 136.485 156.895 136.51 157.042 136.551V138.037C156.233 137.984 155.63 138.152 155.238 138.544C154.842 138.936 154.648 139.602 154.648 140.537V143.821H152.743V136.665H154.648V137.972L155.238 136.976C155.597 136.649 156.018 136.485 156.503 136.485Z" fill="#F1EFE7"/>
<path id="Vector_15" d="M168.205 136.666L165.237 144.084C164.841 145.052 164.415 145.722 163.956 146.093C163.505 146.461 162.902 146.649 162.152 146.649C161.823 146.649 161.536 146.632 161.292 146.6V145.309C161.414 145.329 161.604 145.342 161.865 145.342C162.514 145.342 162.978 145.023 163.248 144.394L163.349 144.165L160.331 136.666H162.472L164.293 142.417L166.097 136.666H168.205Z" fill="#F1EFE7"/>
<path id="Vector_16" d="M180.902 140.537H177.681V139.491H180.902V140.537Z" fill="#F1EFE7"/>
<path id="Vector_17" d="M195.587 143.821L195.452 142.776L195.098 143.544C194.613 143.858 194.002 144.017 193.26 144.017C192.585 144.017 192.016 143.829 191.557 143.462C191.106 143.094 190.882 142.58 190.882 141.926C190.882 141.142 191.224 140.537 191.911 140.112C192.606 139.679 193.618 139.459 194.946 139.459H195.418V139.312C195.418 139.03 195.41 138.805 195.401 138.642C195.334 138.066 194.95 137.776 194.255 137.776C193.488 137.776 193.079 138.185 193.024 139.001H191.169C191.19 138.217 191.494 137.605 192.08 137.155C192.674 136.71 193.42 136.485 194.322 136.485C196.164 136.485 197.155 137.188 197.29 138.593C197.311 138.932 197.324 139.296 197.324 139.688V142.008C197.324 142.555 197.366 143.16 197.458 143.821H195.587ZM194.002 142.71C194.406 142.71 194.744 142.575 195.014 142.302C195.283 142.032 195.418 141.661 195.418 141.191V140.603C193.719 140.496 192.872 140.889 192.872 141.779C192.872 142.4 193.247 142.71 194.002 142.71Z" fill="#F1EFE7"/>
<path id="Vector_18" d="M206.676 136.485C207.687 136.485 208.484 136.824 209.07 137.498C209.664 138.164 209.964 139.034 209.964 140.112C209.964 141.346 209.626 142.302 208.952 142.988C208.278 143.674 207.434 144.017 206.423 144.017C205.668 144.017 205.091 143.878 204.686 143.609L204.197 142.874V146.452H202.292V136.665H204.197V137.76L204.753 136.976C205.179 136.649 205.82 136.485 206.676 136.485ZM206.052 142.71C206.625 142.71 207.085 142.498 207.434 142.073C207.793 141.648 207.974 141.036 207.974 140.227C207.974 139.5 207.805 138.912 207.468 138.462C207.131 138.005 206.68 137.776 206.119 137.776C205.546 137.776 205.078 137.968 204.72 138.348C204.37 138.732 204.197 139.336 204.197 140.161V140.505C204.197 141.256 204.374 141.812 204.736 142.171C205.107 142.531 205.546 142.71 206.052 142.71Z" fill="#F1EFE7"/>
<path id="Vector_19" d="M218.787 136.485C219.799 136.485 220.596 136.824 221.182 137.498C221.776 138.164 222.076 139.034 222.076 140.112C222.076 141.346 221.738 142.302 221.064 142.988C220.389 143.674 219.546 144.017 218.535 144.017C217.78 144.017 217.202 143.878 216.798 143.609L216.309 142.874V146.452H214.403V136.665H216.309V137.76L216.865 136.976C217.291 136.649 217.932 136.485 218.787 136.485ZM218.164 142.71C218.737 142.71 219.196 142.498 219.546 142.073C219.905 141.648 220.086 141.036 220.086 140.227C220.086 139.5 219.917 138.912 219.58 138.462C219.243 138.005 218.792 137.776 218.231 137.776C217.658 137.776 217.19 137.968 216.831 138.348C216.482 138.732 216.309 139.336 216.309 140.161V140.505C216.309 141.256 216.486 141.812 216.848 142.171C217.219 142.531 217.658 142.71 218.164 142.71Z" fill="#F1EFE7"/>
<path id="Vector_20" d="M230.277 136.485C230.488 136.485 230.669 136.51 230.816 136.551V138.037C230.007 137.984 229.404 138.152 229.012 138.544C228.616 138.936 228.422 139.602 228.422 140.537V143.821H226.517V136.665H228.422V137.972L229.012 136.976C229.37 136.649 229.792 136.485 230.277 136.485Z" fill="#F1EFE7"/>
<path id="Vector_21" d="M241.675 140.096C241.675 140.358 241.667 140.57 241.658 140.733H236.414C236.515 142.053 237.08 142.71 238.117 142.71C238.53 142.71 238.876 142.604 239.146 142.383C239.416 142.167 239.584 141.873 239.652 141.501H241.574C241.38 142.318 240.971 142.947 240.343 143.38C239.723 143.805 238.965 144.017 238.067 144.017C237.009 144.017 236.144 143.699 235.47 143.053C234.804 142.412 234.475 141.485 234.475 140.276C234.475 139.165 234.817 138.258 235.504 137.547C236.199 136.841 237.106 136.485 238.218 136.485C239.306 136.485 240.158 136.828 240.765 137.515C241.372 138.201 241.675 139.063 241.675 140.096ZM238.134 137.776C237.19 137.776 236.633 138.36 236.465 139.524H239.702C239.576 138.36 239.053 137.776 238.134 137.776Z" fill="#F1EFE7"/>
<path id="Vector_22" d="M249.378 136.485C250.356 136.485 251.14 136.743 251.739 137.253C252.346 137.768 252.683 138.43 252.75 139.247H250.862C250.693 138.266 250.187 137.776 249.344 137.776C248.826 137.776 248.417 137.984 248.113 138.397C247.818 138.801 247.675 139.394 247.675 140.178C247.675 141.027 247.818 141.665 248.113 142.089C248.417 142.506 248.821 142.71 249.327 142.71C249.707 142.71 250.027 142.596 250.288 142.367C250.558 142.13 250.735 141.791 250.828 141.354H252.733C252.573 142.216 252.181 142.874 251.553 143.331C250.933 143.789 250.153 144.017 249.209 144.017C248.164 144.017 247.312 143.699 246.663 143.053C246.01 142.412 245.685 141.493 245.685 140.292C245.685 139.116 246.031 138.193 246.731 137.515C247.439 136.828 248.32 136.485 249.378 136.485Z" fill="#F1EFE7"/>
<path id="Vector_23" d="M257.35 134.281C257.552 134.097 257.81 134.003 258.126 134.003C258.438 134.003 258.691 134.097 258.885 134.281C259.074 134.469 259.171 134.701 259.171 134.983C259.171 135.277 259.074 135.518 258.885 135.702C258.691 135.878 258.438 135.964 258.126 135.964C257.81 135.964 257.552 135.878 257.35 135.702C257.156 135.518 257.063 135.277 257.063 134.983C257.063 134.701 257.156 134.469 257.35 134.281ZM259.07 143.822H257.165V136.666H259.07V143.822Z" fill="#F1EFE7"/>
<path id="Vector_24" d="M268.329 143.821L268.195 142.776L267.84 143.544C267.356 143.858 266.744 144.017 266.003 144.017C265.328 144.017 264.759 143.829 264.299 143.462C263.848 143.094 263.625 142.58 263.625 141.926C263.625 141.142 263.966 140.537 264.654 140.112C265.349 139.679 266.361 139.459 267.689 139.459H268.161V139.312C268.161 139.03 268.152 138.805 268.144 138.642C268.077 138.066 267.693 137.776 266.997 137.776C266.23 137.776 265.821 138.185 265.766 139.001H263.912C263.933 138.217 264.236 137.605 264.822 137.155C265.417 136.71 266.163 136.485 267.065 136.485C268.907 136.485 269.898 137.188 270.033 138.593C270.054 138.932 270.066 139.296 270.066 139.688V142.008C270.066 142.555 270.108 143.16 270.201 143.821H268.329ZM266.744 142.71C267.149 142.71 267.486 142.575 267.756 142.302C268.026 142.032 268.161 141.661 268.161 141.191V140.603C266.462 140.496 265.615 140.889 265.615 141.779C265.615 142.4 265.99 142.71 266.744 142.71Z" fill="#F1EFE7"/>
<path id="Vector_25" d="M277.329 137.941V141.258C277.329 141.552 277.329 141.76 277.329 141.879C277.363 142.238 277.468 142.475 277.649 142.581C277.839 142.679 278.197 142.708 278.729 142.663V143.872C278.324 143.938 277.902 143.97 277.464 143.97C276.756 143.97 276.25 143.856 275.946 143.627C275.651 143.398 275.483 143.023 275.441 142.5C275.415 142.296 275.407 141.952 275.407 141.47V137.941H274.328V136.716H275.407V134.968H277.329V136.716H278.847V137.941H277.329Z" fill="#F1EFE7"/>
<path id="Vector_26" d="M289.931 140.096C289.931 140.358 289.922 140.57 289.914 140.733H284.67C284.771 142.053 285.336 142.71 286.373 142.71C286.786 142.71 287.131 142.604 287.401 142.383C287.671 142.167 287.84 141.873 287.907 141.501H289.829C289.635 142.318 289.227 142.947 288.598 143.38C287.979 143.805 287.22 144.017 286.322 144.017C285.264 144.017 284.4 143.699 283.725 143.053C283.059 142.412 282.73 141.485 282.73 140.276C282.73 139.165 283.072 138.258 283.759 137.547C284.455 136.841 285.361 136.485 286.474 136.485C287.561 136.485 288.413 136.828 289.02 137.515C289.627 138.201 289.931 139.063 289.931 140.096ZM286.39 137.776C285.445 137.776 284.889 138.36 284.72 139.524H287.958C287.831 138.36 287.308 137.776 286.39 137.776Z" fill="#F1EFE7"/>
</g>
<g id="hor">
<path id="Vector_27" d="M212.25 8.4707C213.283 8.4707 214.071 8.72395 214.611 9.22227C215.159 9.72467 215.488 10.3945 215.589 11.2319H213.751C213.692 10.7744 213.532 10.4231 213.262 10.1699C213 9.90847 212.642 9.77777 212.183 9.77777C211.812 9.77777 211.508 9.87171 211.272 10.0555C211.036 10.2312 210.918 10.4885 210.918 10.8234C210.918 11.1951 211.057 11.4892 211.34 11.7057C211.618 11.914 212.119 12.0978 212.84 12.2612C213.827 12.4818 214.552 12.8126 215.015 13.2578C215.488 13.7071 215.724 14.2831 215.724 14.9897C215.724 15.7862 215.395 16.4193 214.746 16.8849C214.105 17.3547 213.317 17.5875 212.385 17.5875C211.28 17.5875 210.399 17.3547 209.738 16.8849C209.084 16.4193 208.717 15.7249 208.642 14.81H210.48C210.581 15.2797 210.8 15.6432 211.137 15.9046C211.474 16.1579 211.879 16.2804 212.351 16.2804C212.777 16.2804 213.131 16.1824 213.414 15.9863C213.692 15.7821 213.835 15.5084 213.835 15.1694C213.835 14.8018 213.692 14.4995 213.414 14.2708C213.144 14.0421 212.68 13.8542 212.031 13.699C211.019 13.4621 210.26 13.1435 209.754 12.7513C209.257 12.3592 209.013 11.7874 209.013 11.0358C209.013 10.2516 209.325 9.63072 209.957 9.17325C210.585 8.70761 211.348 8.4707 212.25 8.4707Z" fill="#F1EFE7"/>
<path id="Vector_28" d="M213.134 29.0503H211.33V20.293H213.134V29.0503Z" fill="#F1EFE7"/>
<path id="Vector_29" d="M216.201 40.6929H213.722L209.996 34.0432C210.038 34.8397 210.063 35.7383 210.063 36.739V40.6929H208.259V31.9355H210.653L214.464 38.7159C214.418 37.9317 214.397 37.0127 214.397 35.9548V31.9355H216.184L216.201 40.6929Z" fill="#F1EFE7"/>
<path id="Vector_30" d="M212.409 43.3965C213.59 43.3965 214.509 43.6742 215.175 44.2297C215.836 44.7852 216.22 45.5164 216.321 46.4191V46.5498H214.517L214.5 46.4191C214.264 45.2754 213.56 44.7035 212.392 44.7035C211.65 44.7035 211.052 44.9936 210.605 45.5695C210.167 46.1372 209.947 46.9174 209.947 47.9059C209.947 48.9638 210.167 49.7807 210.605 50.3566C211.052 50.9244 211.638 51.2062 212.359 51.2062C212.932 51.2062 213.391 51.051 213.741 50.7324C214.087 50.4179 214.323 49.9808 214.45 49.4253L214.483 49.2946H216.271V49.4253C216.169 50.3729 215.765 51.1245 215.057 51.68C214.348 52.2355 213.421 52.5133 212.274 52.5133C211.001 52.5133 209.981 52.113 209.205 51.3042C208.43 50.4873 208.042 49.3886 208.042 48.0039C208.042 46.5988 208.451 45.4837 209.273 44.6545C210.091 43.8172 211.136 43.3965 212.409 43.3965Z" fill="#F1EFE7"/>
<path id="Vector_31" d="M215.722 62.5844V63.9732H209.196V55.2158H215.587V56.5882H211.001V58.8919H215.267V60.2807H211.001V62.5844H215.722Z" fill="#F1EFE7"/>
<path id="Vector_32" d="M211.523 85.8693H215.35V87.2581H208.757V86.4248L211.792 83.5493C212.433 82.9407 212.876 82.4546 213.125 82.0952C213.369 81.7276 213.496 81.3395 213.496 80.9352C213.496 80.543 213.382 80.2285 213.158 79.9875C212.931 79.7384 212.61 79.6118 212.197 79.6118C211.759 79.6118 211.422 79.7506 211.185 80.0202C210.949 80.2816 210.802 80.6819 210.747 81.2129L210.73 81.3436H208.943V81.2129C209.044 80.2775 209.385 79.5587 209.971 79.0563C210.553 78.5579 211.354 78.3047 212.366 78.3047C213.344 78.3047 214.094 78.5334 214.625 78.9909C215.152 79.4484 215.418 80.0651 215.418 80.8371C215.418 81.3845 215.258 81.895 214.946 82.3729C214.63 82.8427 214.044 83.4799 213.192 84.2845L211.523 85.8693Z" fill="#F1EFE7"/>
<path id="Vector_33" d="M212.079 89.9609C214.415 89.9609 215.587 91.4804 215.587 94.5193C215.587 97.5583 214.415 99.0777 212.079 99.0777C209.727 99.0777 208.555 97.5583 208.555 94.5193C208.555 91.4804 209.727 89.9609 212.079 89.9609ZM210.865 96.9864C211.122 97.5092 211.527 97.7706 212.079 97.7706C212.627 97.7706 213.032 97.5092 213.293 96.9864C213.551 96.4554 213.681 95.6303 213.681 94.5193C213.681 93.4002 213.551 92.5751 213.293 92.0522C213.032 91.5294 212.627 91.268 212.079 91.268C211.514 91.268 211.106 91.5294 210.848 92.0522C210.6 92.5751 210.477 93.4002 210.477 94.5193C210.477 95.6303 210.604 96.4554 210.865 96.9864Z" fill="#F1EFE7"/>
<path id="Vector_34" d="M211.523 109.15H215.35V110.538H208.757V109.705L211.792 106.83C212.433 106.221 212.876 105.735 213.125 105.375C213.369 105.008 213.496 104.62 213.496 104.215C213.496 103.823 213.382 103.509 213.158 103.268C212.931 103.019 212.61 102.892 212.197 102.892C211.759 102.892 211.422 103.031 211.185 103.3C210.949 103.562 210.802 103.962 210.747 104.493L210.73 104.624H208.943V104.493C209.044 103.558 209.385 102.839 209.971 102.337C210.553 101.838 211.354 101.585 212.366 101.585C213.344 101.585 214.094 101.814 214.625 102.271C215.152 102.729 215.418 103.345 215.418 104.117C215.418 104.665 215.258 105.175 214.946 105.653C214.63 106.123 214.044 106.76 213.192 107.565L211.523 109.15Z" fill="#F1EFE7"/>
<path id="Vector_35" d="M213.614 117.542C214.871 117.828 215.503 118.531 215.503 119.65C215.503 120.467 215.174 121.128 214.525 121.627C213.871 122.117 213.028 122.362 211.996 122.362C210.971 122.362 210.158 122.129 209.551 121.659C208.944 121.194 208.589 120.512 208.488 119.617V119.486H210.293L210.309 119.617C210.385 120.066 210.571 120.418 210.866 120.679C211.157 120.932 211.532 121.055 211.996 121.055C212.468 121.055 212.847 120.936 213.142 120.695C213.446 120.446 213.597 120.119 213.597 119.715C213.597 118.833 212.995 118.375 211.793 118.343H211.49V117.134L211.793 117.117C212.274 117.097 212.657 116.966 212.94 116.725C213.231 116.476 213.378 116.145 213.378 115.729C213.378 115.381 213.26 115.1 213.024 114.879C212.797 114.662 212.489 114.552 212.097 114.552C211.692 114.552 211.363 114.679 211.119 114.928C210.883 115.181 210.739 115.516 210.697 115.941L210.68 116.055H208.893V115.941C208.969 115.149 209.302 114.499 209.888 113.997C210.47 113.498 211.275 113.245 212.299 113.245C213.243 113.245 213.977 113.458 214.508 113.882C215.035 114.307 215.301 114.859 215.301 115.532C215.301 116.035 215.153 116.464 214.862 116.823C214.567 117.174 214.154 117.411 213.614 117.542Z" fill="#F1EFE7"/>
</g>
<g id="SVG">
<path id="Vector_36" d="M83.2958 36.6449V4.2002H114.404V36.6449H133.386V59.5654H114.404V87.2315C114.404 95.2726 116.749 99.2932 121.448 99.2932C122.616 99.2932 123.844 99.0707 125.132 98.6176C126.415 98.1686 127.409 97.7113 128.116 97.25L129.174 96.5744L136.9 120.863C130.223 124.488 122.612 126.3 114.063 126.3C108.205 126.3 103.169 125.312 98.9523 123.334C94.7312 121.349 91.5376 118.683 89.3674 115.343C87.1928 112.006 85.6366 108.496 84.6943 104.813C83.7605 101.135 83.2958 97.2005 83.2958 93.0152V59.5654H70.2998V36.6449H83.2958Z" fill="white"/>
<path id="Vector_37" d="M144.878 54.9812C139.559 49.2808 136.9 42.2909 136.9 34.0074C136.9 25.7158 139.559 18.6974 144.878 12.952C150.205 7.20666 156.982 4.33398 165.205 4.33398C172.751 4.33398 178.967 6.66395 183.854 11.3198V5.98251H203.5V61.9018H184.07V55.5852H183.854C178.967 60.8857 172.751 63.534 165.205 63.534C156.982 63.534 150.205 60.6858 144.878 54.9812ZM161.582 24.508C159.031 26.9808 157.759 30.1391 157.759 33.9911C157.759 37.8431 158.977 40.9892 161.416 43.4252C163.863 45.8654 167.088 47.0814 171.089 47.0814C174.933 47.0814 178.095 45.8491 180.58 43.3763C183.06 40.8953 184.303 37.7697 184.303 33.9911C184.303 30.1391 183.023 26.9808 180.463 24.508C177.912 22.0393 174.787 20.8029 171.089 20.8029C167.308 20.8029 164.142 22.0393 161.582 24.508Z" fill="white"/>
<path id="Vector_38" d="M144.878 117.748C139.559 112.047 136.9 105.057 136.9 96.774C136.9 88.4824 139.559 81.464 144.878 75.7186C150.205 69.9733 156.982 67.1006 165.205 67.1006C172.751 67.1006 178.967 69.4306 183.854 74.0864V68.7491H203.5V124.668H184.07V118.352H183.854C178.967 123.652 172.751 126.301 165.205 126.301C156.982 126.301 150.205 123.452 144.878 117.748ZM161.582 87.2746C159.031 89.7474 157.759 92.9057 157.759 96.7577C157.759 100.61 158.977 103.756 161.416 106.192C163.863 108.632 167.088 109.848 171.089 109.848C174.933 109.848 178.095 108.616 180.58 106.143C183.06 103.662 184.303 100.536 184.303 96.7577C184.303 92.9057 183.023 89.7474 180.463 87.2746C177.912 84.8059 174.787 83.5695 171.089 83.5695C167.308 83.5695 164.142 84.8059 161.582 87.2746Z" fill="white"/>
</g>
</g>
</svg>
